<svg width="512" height="136" viewBox="0 0 512 136" fill="none" xmlns="http://www.w3.org/2000/svg">
<path fill-rule="evenodd" clip-rule="evenodd" d="M435.634 0.550781C459.194 0.55079 478.033 6.07757 491.63 17.6416L491.951 17.916C505.479 29.5971 512 46.5181 512 68.0254C512 89.5325 505.479 106.453 491.951 118.134L491.63 118.409C478.033 129.973 459.194 135.5 435.634 135.5H353.934V0.728516H378.716L435.622 0.550781H435.634ZM435.634 131.689L436.172 131.688C436.343 131.688 436.513 131.686 436.684 131.685C436.335 131.687 435.985 131.689 435.634 131.689ZM390.008 104.76H433.678C448.134 104.76 458.428 101.596 465.183 95.8809L465.336 95.75C471.796 90.1923 475.393 81.2421 475.393 68.0254C475.393 54.5677 471.73 45.609 465.209 40.1914L465.183 40.1689C458.428 34.4539 448.134 31.29 433.678 31.29H390.008V104.76Z" fill="#FF6600"/>
<path fill-rule="evenodd" clip-rule="evenodd" d="M138.325 0.654297C154.189 0.654297 165.432 4.31239 172.057 11.6289C178.681 18.7713 181.993 28.8751 181.993 41.9404V135.227H43.668C29.5478 135.227 18.74 131.655 11.2441 124.513C3.7483 117.37 6.31577e-05 107.18 0 93.9404C0 80.8751 3.74824 70.7713 11.2441 63.6289C18.74 56.4865 29.5478 52.915 43.668 52.915H144.078V46.6436C144.078 36.0172 138.848 30.7041 128.389 30.7041H17.5195V0.654297H138.325ZM50.4668 82.9648C47.1548 82.9648 44.5396 84.0103 42.6221 86.1006C40.8788 88.0168 40.0068 90.6306 40.0068 93.9404C40.0069 97.2502 40.8789 99.9506 42.6221 102.041C44.5396 104.131 47.1548 105.176 50.4668 105.176H144.078V82.9648H50.4668Z" fill="#FF6600"/>
<path fill-rule="evenodd" clip-rule="evenodd" d="M300.944 0.604492C313.876 0.604509 324.45 3.84065 332.122 10.8271C339.958 17.7337 343.7 27.3341 343.7 39.0918C343.7 45.5164 342.477 51.6535 340.021 57.4688L340.016 57.4824L340.01 57.4971C338.254 61.5627 335.703 64.9355 332.4 67.585C335.678 70.241 338.223 73.5629 339.983 77.5342L340.1 77.793C342.52 83.246 343.7 89.2148 343.7 95.6426C343.7 107.306 339.949 117.009 332.222 124.349C324.553 131.748 313.942 135.197 300.944 135.197H194.169V104.458H295.787C299.574 104.458 301.76 103.436 303.069 102.008C304.543 100.282 305.492 97.7147 305.492 93.8643C305.492 89.9659 304.576 87.3831 303.177 85.6709L303.04 85.5068C301.719 83.9771 299.547 82.915 295.787 82.915H210.886V52.3535H295.609C299.535 52.3535 301.793 51.3303 303.117 49.9375C304.476 48.5085 305.492 46.0206 305.492 41.7598C305.492 37.5693 304.482 35.1327 303.134 33.7324C301.812 32.3593 299.548 31.3438 295.609 31.3438H194.169V0.604492H300.944Z" fill="#FF6600"/>
</svg>
