<svg width="257" height="256" viewBox="0 0 257 256" fill="none" xmlns="http://www.w3.org/2000/svg">
<path d="M145.015 256V134.824H225.508L256.297 160.309V230.515L225.508 256H145.015ZM163.327 242.682H217.257L237.985 225.418V165.406L217.257 148.142H163.327V242.682Z" fill="#FF6600"/>
<path d="M28.5902 256L8.26568 239.229L20.1385 229.529L36.4384 242.682H84.5331L95.6009 233.639V208.483L84.3319 198.947H40.6643V185.794H84.3319L95.6009 176.258V157.185L84.5331 147.978L39.8593 148.142L23.5594 161.296L11.6867 151.595L32.0112 134.824H92.7837L113.913 152.088V180.204L99.2231 192.37L113.913 204.702V238.736L92.7837 256H28.5902Z" fill="#FF6600"/>
<path d="M192.627 137.946V121.176H165.661L144.532 103.912V17.2638L165.661 0H235.691L256.82 17.2638V103.912L235.691 121.176H208.725V137.946H192.627ZM173.912 107.858H192.627V90.4295H208.725V107.858H227.44L238.508 98.8148V22.3608L227.44 13.3178H173.912L162.844 22.3608V98.8148L173.912 107.858Z" fill="#FF6600"/>
<path d="M0.820068 121.176L50.9272 2.75731e-05H79.3011L129.408 121.176H110.291L97.6133 89.6075H32.6149L20.1385 121.176H0.820068ZM38.0482 76.4541H92.3812L67.4283 14.1399H62.7999L38.0482 76.4541Z" fill="#FF6600"/>
</svg>
