<svg width="210" height="257" viewBox="0 0 210 257" fill="none" xmlns="http://www.w3.org/2000/svg">
<path d="M118.606 256.63V135.454H184.373L209.529 160.939V231.145L184.373 256.63H118.606ZM133.568 243.312H177.632L194.567 226.048V166.036L177.632 148.772H133.568V243.312Z" fill="#6FFF31"/>
<path d="M23.4821 256.63L6.87598 239.859L16.5766 230.158L29.8944 243.312H69.1901L78.2331 234.269V209.113L69.0257 199.577H33.3472V186.423H69.0257L78.2331 176.887V157.815L69.1901 148.607L32.6895 148.772L19.3717 161.925L9.67107 152.225L26.2772 135.454H75.9312L93.1951 152.718V180.833L81.1926 193L93.1951 205.331V239.366L75.9312 256.63H23.4821Z" fill="#6FFF31"/>
<path d="M157.508 138.576V121.805H135.476L118.212 104.541V17.8935L135.476 0.629639H192.693L209.957 17.8935V104.541L192.693 121.805H170.661V138.576H157.508ZM142.217 108.487H157.508V91.0592H170.661V108.487H185.952L194.995 99.4444V22.9904L185.952 13.9474H142.217L133.174 22.9904V99.4444L142.217 108.487Z" fill="#6FFF31"/>
<path d="M0.79248 121.805L41.7324 0.629639H64.9152L105.855 121.805H90.2355L79.8772 90.2371H26.7704L16.5765 121.805H0.79248ZM31.2097 77.0837H75.6024L55.2146 14.7695H51.433L31.2097 77.0837Z" fill="#6FFF31"/>
</svg>
